BodoniModa-6ptBlackItalic.ufo
<glyph name="ampersand" format="2">
  <advance width="1733"/>
  <unicode hex="0026"/>
  <outline>
    <contour>
      <point x="1420" y="-20" type="curve" smooth="yes"/>
      <point x="1608" y="-20"/>
      <point x="1700" y="53"/>
      <point x="1738" y="141" type="curve"/>
      <point x="1679" y="160" type="line"/>
      <point x="1644" y="115"/>
      <point x="1616" y="85"/>
      <point x="1544" y="85" type="curve" smooth="yes"/>
      <point x="1464" y="85"/>
      <point x="1436.39" y="117.854"/>
      <point x="1392" y="189" type="curve" smooth="yes"/>
      <point x="924" y="939" type="line" smooth="yes"/>
      <point x="845.26" y="1065.19"/>
      <point x="826" y="1170"/>
      <point x="826" y="1240" type="curve" smooth="yes"/>
      <point x="826" y="1346"/>
      <point x="849" y="1453"/>
      <point x="918" y="1453" type="curve" smooth="yes"/>
      <point x="968" y="1453"/>
      <point x="983" y="1379"/>
      <point x="983" y="1256" type="curve" smooth="yes"/>
      <point x="983" y="1092"/>
      <point x="970" y="1015"/>
      <point x="893" y="954" type="curve"/>
      <point x="921" y="886" type="line"/>
      <point x="1175" y="988"/>
      <point x="1389" y="1051"/>
      <point x="1389" y="1253" type="curve" smooth="yes"/>
      <point x="1389" y="1413"/>
      <point x="1152" y="1520"/>
      <point x="938" y="1520" type="curve" smooth="yes"/>
      <point x="667" y="1520"/>
      <point x="417" y="1366"/>
      <point x="417" y="1166" type="curve" smooth="yes"/>
      <point x="417" y="1096"/>
      <point x="438.341" y="1013.41"/>
      <point x="487" y="939" type="curve" smooth="yes"/>
      <point x="982" y="182" type="line" smooth="yes"/>
      <point x="1060.33" y="62.215"/>
      <point x="1224" y="-20"/>
    </contour>
    <contour>
      <point x="579" y="-20" type="curve" smooth="yes"/>
      <point x="1199" y="-20"/>
      <point x="1712" y="318"/>
      <point x="1712" y="647" type="curve" smooth="yes"/>
      <point x="1712" y="779"/>
      <point x="1606" y="898"/>
      <point x="1460" y="898" type="curve" smooth="yes"/>
      <point x="1346" y="898"/>
      <point x="1236" y="790"/>
      <point x="1236" y="689" type="curve" smooth="yes"/>
      <point x="1236" y="579"/>
      <point x="1322" y="470"/>
      <point x="1472" y="470" type="curve" smooth="yes"/>
      <point x="1591" y="470"/>
      <point x="1710" y="557"/>
      <point x="1710" y="647" type="curve"/>
      <point x="1637" y="647" type="line"/>
      <point x="1637" y="436"/>
      <point x="1264" y="105"/>
      <point x="838" y="105" type="curve" smooth="yes"/>
      <point x="580" y="105"/>
      <point x="450" y="261"/>
      <point x="450" y="429" type="curve" smooth="yes"/>
      <point x="450" y="588"/>
      <point x="519" y="706"/>
      <point x="614" y="769" type="curve"/>
      <point x="587" y="830" type="line"/>
      <point x="300" y="716"/>
      <point x="40" y="604"/>
      <point x="40" y="320" type="curve" smooth="yes"/>
      <point x="40" y="74"/>
      <point x="293" y="-20"/>
    </contour>
  </outline>
</glyph>
<glyph name="parenleft" format="2">
  <advance width="769"/>
  <unicode hex="0028"/>
  <outline>
    <contour>
      <point x="572" y="-340" type="curve"/>
      <point x="607" y="-277" type="line"/>
      <point x="575" y="-216"/>
      <point x="527" y="-116"/>
      <point x="527" y="29" type="curve" smooth="yes"/>
      <point x="527" y="472"/>
      <point x="740" y="1289"/>
      <point x="1049" y="1529" type="curve"/>
      <point x="1012" y="1600" type="line"/>
      <point x="625" y="1440"/>
      <point x="170" y="956"/>
      <point x="170" y="370" type="curve" smooth="yes"/>
      <point x="170" y="24"/>
      <point x="345" y="-240"/>
    </contour>
  </outline>
</glyph>
<glyph name="one" format="2">
  <advance width="1109"/>
  <unicode hex="0031"/>
  <outline>
    <contour>
      <point x="141" y="0" type="line"/>
      <point x="570" y="0" type="line"/>
      <point x="910" y="1500" type="line"/>
      <point x="244" y="1500" type="line"/>
      <point x="244" y="1427" type="line"/>
      <point x="463" y="1427" type="line"/>
    </contour>
    <contour>
      <point x="-65" y="0" type="line"/>
      <point x="805" y="0" type="line"/>
      <point x="805" y="73" type="line"/>
      <point x="-65" y="73" type="line"/>
    </contour>
  </outline>
</glyph>
<glyph name="five" format="2">
  <advance width="1253"/>
  <unicode hex="0035"/>
  <outline>
    <contour>
      <point x="187" y="694" type="line"/>
      <point x="260" y="694" type="line"/>
      <point x="391" y="1080" type="line"/>
      <point x="1242" y="1080" type="line"/>
      <point x="1363" y="1609" type="line"/>
      <point x="1291" y="1609" type="line"/>
      <point x="1265" y="1500" type="line"/>
      <point x="457" y="1500" type="line"/>
    </contour>
    <contour>
      <point x="452" y="-20" type="curve" smooth="yes"/>
      <point x="804" y="-20"/>
      <point x="1171" y="211"/>
      <point x="1171" y="541" type="curve" smooth="yes"/>
      <point x="1171" y="801"/>
      <point x="936" y="879"/>
      <point x="654" y="879" type="curve" smooth="yes"/>
      <point x="472" y="879"/>
      <point x="308" y="807"/>
      <point x="236" y="694" type="curve"/>
      <point x="308" y="694" type="line"/>
      <point x="372" y="765"/>
      <point x="470" y="799"/>
      <point x="570" y="799" type="curve" smooth="yes"/>
      <point x="668" y="799"/>
      <point x="740" y="769"/>
      <point x="740" y="621" type="curve" smooth="yes"/>
      <point x="740" y="392"/>
      <point x="670" y="55"/>
      <point x="382" y="55" type="curve" smooth="yes"/>
      <point x="223" y="55"/>
      <point x="75" y="148"/>
      <point x="75" y="318" type="curve"/>
      <point x="2" y="318" type="line"/>
      <point x="2" y="218"/>
      <point x="113.443" y="120"/>
      <point x="223" y="120" type="curve" smooth="yes"/>
      <point x="332" y="120"/>
      <point x="439" y="210"/>
      <point x="439" y="330" type="curve" smooth="yes"/>
      <point x="439" y="450"/>
      <point x="333" y="542"/>
      <point x="223" y="542" type="curve" smooth="yes"/>
      <point x="102" y="542"/>
      <point x="0" y="440"/>
      <point x="0" y="318" type="curve" smooth="yes"/>
      <point x="0" y="93"/>
      <point x="198" y="-20"/>
    </contour>
  </outline>
</glyph>
<glyph name="M" format="2">
  <advance width="1965"/>
  <unicode hex="004D"/>
  <anchor x="721" y="0" name="bottom"/>
  <anchor x="1097" y="1500" name="top"/>
  <outline>
    <contour>
      <point x="665" y="-20" type="line"/>
      <point x="748" y="-20" type="line"/>
      <point x="1582" y="1500" type="line"/>
      <point x="1499" y="1500" type="line"/>
      <point x="1008" y="600" type="line"/>
      <point x="861" y="1500" type="line"/>
      <point x="430" y="1500" type="line"/>
    </contour>
    <contour>
      <point x="-61" y="0" type="line"/>
      <point x="264" y="0" type="line"/>
      <point x="264" y="73" type="line"/>
      <point x="-61" y="73" type="line"/>
    </contour>
    <contour>
      <point x="70" y="0" type="line"/>
      <point x="146" y="0" type="line"/>
      <point x="467" y="1500" type="line"/>
      <point x="240" y="1500" type="line"/>
      <point x="240" y="1427" type="line"/>
      <point x="382" y="1427" type="line"/>
    </contour>
    <contour>
      <point x="1096" y="0" type="line"/>
      <point x="1826" y="0" type="line"/>
      <point x="1826" y="73" type="line"/>
      <point x="1096" y="73" type="line"/>
    </contour>
    <contour>
      <point x="1236" y="0" type="line"/>
      <point x="1666" y="0" type="line"/>
      <point x="1979" y="1427" type="line"/>
      <point x="2106" y="1427" type="line"/>
      <point x="2106" y="1500" type="line"/>
      <point x="1557" y="1500" type="line"/>
    </contour>
  </outline>
</glyph>
<glyph name="bracketright" format="2">
  <advance width="789"/>
  <unicode hex="005D"/>
  <outline>
    <contour>
      <point x="-192" y="-301" type="line"/>
      <point x="428" y="-301" type="line"/>
      <point x="848" y="1560" type="line"/>
      <point x="228" y="1560" type="line"/>
      <point x="228" y="1487" type="line"/>
      <point x="451" y="1487" type="line"/>
      <point x="65" y="-226" type="line"/>
      <point x="-192" y="-226" type="line"/>
    </contour>
  </outline>
</glyph>
<glyph name="e" format="2">
  <advance width="1063"/>
  <unicode hex="0065"/>
  <anchor x="435" y="0" name="bottom"/>
  <anchor x="493" y="0" name="ogonek"/>
  <anchor x="685" y="920" name="top"/>
  <outline>
    <contour>
      <point x="397" y="-20" type="curve" smooth="yes"/>
      <point x="650" y="-20"/>
      <point x="800" y="128"/>
      <point x="909" y="259" type="curve"/>
      <point x="845" y="303" type="line"/>
      <point x="760" y="181"/>
      <point x="597" y="71"/>
      <point x="501" y="71" type="curve" smooth="yes"/>
      <point x="448" y="71"/>
      <point x="409" y="95"/>
      <point x="409" y="163" type="curve" smooth="yes"/>
      <point x="409" y="376"/>
      <point x="585" y="876"/>
      <point x="703" y="876" type="curve" smooth="yes"/>
      <point x="733" y="876"/>
      <point x="739" y="859"/>
      <point x="739" y="835" type="curve" smooth="yes"/>
      <point x="739" y="767"/>
      <point x="593" y="441"/>
      <point x="405" y="431" type="curve"/>
      <point x="405" y="377" type="line"/>
      <point x="868" y="397"/>
      <point x="1043" y="528"/>
      <point x="1043" y="698" type="curve" smooth="yes"/>
      <point x="1043" y="833"/>
      <point x="905" y="940"/>
      <point x="671" y="940" type="curve" smooth="yes"/>
      <point x="330" y="940"/>
      <point x="40" y="650"/>
      <point x="40" y="300" type="curve" smooth="yes"/>
      <point x="40" y="130"/>
      <point x="155" y="-20"/>
    </contour>
  </outline>
</glyph>
<glyph name="j" format="2">
  <advance width="630"/>
  <unicode hex="006A"/>
  <anchor x="-141" y="-500" name="bottom"/>
  <outline>
    <contour>
      <point x="-209" y="-520" type="curve" smooth="yes"/>
      <point x="11" y="-520"/>
      <point x="322.503" y="-367.847"/>
      <point x="411" y="-23" type="curve" smooth="yes"/>
      <point x="653" y="920" type="line"/>
      <point x="147" y="920" type="line"/>
      <point x="147" y="847" type="line"/>
      <point x="272" y="847" type="line"/>
      <point x="42" y="-87" type="line" smooth="yes"/>
      <point x="-15.284" y="-319.622"/>
      <point x="-70" y="-451"/>
      <point x="-210" y="-451" type="curve" smooth="yes"/>
      <point x="-289" y="-451"/>
      <point x="-440" y="-397"/>
      <point x="-440" y="-277" type="curve"/>
      <point x="-513" y="-277" type="line"/>
      <point x="-513" y="-377"/>
      <point x="-415" y="-445"/>
      <point x="-307" y="-445" type="curve" smooth="yes"/>
      <point x="-190" y="-445"/>
      <point x="-107" y="-357"/>
      <point x="-107" y="-266" type="curve" smooth="yes"/>
      <point x="-107" y="-146"/>
      <point x="-201" y="-68"/>
      <point x="-301" y="-68" type="curve" smooth="yes"/>
      <point x="-407" y="-68"/>
      <point x="-515" y="-155"/>
      <point x="-515" y="-277" type="curve" smooth="yes"/>
      <point x="-515" y="-380"/>
      <point x="-422" y="-520"/>
    </contour>
    <contour>
      <point x="551" y="1079" type="curve" smooth="yes"/>
      <point x="677" y="1079"/>
      <point x="770" y="1174"/>
      <point x="770" y="1300" type="curve" smooth="yes"/>
      <point x="770" y="1426"/>
      <point x="677" y="1520"/>
      <point x="551" y="1520" type="curve" smooth="yes"/>
      <point x="425" y="1520"/>
      <point x="331" y="1426"/>
      <point x="331" y="1300" type="curve" smooth="yes"/>
      <point x="331" y="1174"/>
      <point x="425" y="1079"/>
    </contour>
  </outline>
</glyph>
<glyph name="x" format="2">
  <advance width="1226"/>
  <unicode hex="0078"/>
  <anchor x="476" y="0" name="bottom"/>
  <anchor x="716" y="920" name="top"/>
  <outline>
    <contour>
      <point x="823" y="-20" type="curve" smooth="yes"/>
      <point x="977" y="-20"/>
      <point x="1097" y="48"/>
      <point x="1173" y="218" type="curve"/>
      <point x="1106" y="250" type="line"/>
      <point x="1058" y="149"/>
      <point x="1006" y="96"/>
      <point x="960" y="96" type="curve" smooth="yes"/>
      <point x="926" y="96"/>
      <point x="908" y="123"/>
      <point x="900" y="144" type="curve" smooth="yes"/>
      <point x="830" y="337"/>
      <point x="770.871" y="544.974"/>
      <point x="716" y="723" type="curve" smooth="yes"/>
      <point x="671" y="869"/>
      <point x="596" y="939"/>
      <point x="433" y="939" type="curve" smooth="yes"/>
      <point x="259" y="939"/>
      <point x="153" y="853"/>
      <point x="77" y="693" type="curve"/>
      <point x="144" y="660" type="line"/>
      <point x="192" y="761"/>
      <point x="247" y="826"/>
      <point x="294" y="826" type="curve" smooth="yes"/>
      <point x="330" y="826"/>
      <point x="341.414" y="799.153"/>
      <point x="349" y="778" type="curve" smooth="yes"/>
      <point x="401" y="633"/>
      <point x="468.558" y="366.146"/>
      <point x="521" y="196" type="curve" smooth="yes"/>
      <point x="566" y="50"/>
      <point x="660" y="-20"/>
    </contour>
    <contour>
      <point x="183" y="-20" type="curve" smooth="yes"/>
      <point x="351" y="-20"/>
      <point x="514" y="231"/>
      <point x="584" y="426" type="curve"/>
      <point x="513" y="463" type="line"/>
      <point x="452" y="274"/>
      <point x="403.252" y="216.539"/>
      <point x="348" y="143" type="curve" smooth="yes"/>
      <point x="311.383" y="94.264"/>
      <point x="259" y="66"/>
      <point x="212" y="66" type="curve" smooth="yes"/>
      <point x="93" y="66"/>
      <point x="25" y="122"/>
      <point x="25" y="202" type="curve"/>
      <point x="-48" y="202" type="line"/>
      <point x="-48" y="87"/>
      <point x="57" y="22"/>
      <point x="157" y="22" type="curve" smooth="yes"/>
      <point x="285" y="22"/>
      <point x="357" y="107"/>
      <point x="357" y="218" type="curve" smooth="yes"/>
      <point x="357" y="328"/>
      <point x="277" y="412"/>
      <point x="157" y="412" type="curve" smooth="yes"/>
      <point x="31" y="412"/>
      <point x="-50" y="324"/>
      <point x="-50" y="202" type="curve" smooth="yes"/>
      <point x="-50" y="88"/>
      <point x="21" y="-20"/>
    </contour>
    <contour>
      <point x="713" y="457" type="line"/>
      <point x="774" y="646"/>
      <point x="824.373" y="702.083"/>
      <point x="878" y="777" type="curve" smooth="yes"/>
      <point x="912.729" y="825.517"/>
      <point x="966" y="859"/>
      <point x="1013" y="859" type="curve" smooth="yes"/>
      <point x="1122" y="859"/>
      <point x="1201" y="813"/>
      <point x="1201" y="733" type="curve"/>
      <point x="1274" y="733" type="line"/>
      <point x="1274" y="833"/>
      <point x="1169" y="918"/>
      <point x="1069" y="918" type="curve" smooth="yes"/>
      <point x="951" y="918"/>
      <point x="876" y="828"/>
      <point x="876" y="727" type="curve" smooth="yes"/>
      <point x="876" y="617"/>
      <point x="950" y="528"/>
      <point x="1074" y="528" type="curve" smooth="yes"/>
      <point x="1195" y="528"/>
      <point x="1276" y="611"/>
      <point x="1276" y="733" type="curve" smooth="yes"/>
      <point x="1276" y="847"/>
      <point x="1202" y="940"/>
      <point x="1053" y="940" type="curve" smooth="yes"/>
      <point x="885" y="940"/>
      <point x="781" y="770"/>
      <point x="640" y="495" type="curve"/>
    </contour>
  </outline>
</glyph>
<glyph name="braceright" format="2">
  <advance width="743"/>
  <unicode hex="007D"/>
  <outline>
    <contour>
      <point x="-80" y="-301" type="line"/>
      <point x="250" y="-301"/>
      <point x="579" y="-160"/>
      <point x="579" y="117" type="curve" smooth="yes"/>
      <point x="579" y="291"/>
      <point x="525" y="286"/>
      <point x="525" y="412" type="curve" smooth="yes"/>
      <point x="525" y="514"/>
      <point x="653" y="556"/>
      <point x="714" y="576" type="curve"/>
      <point x="714" y="640" type="line"/>
      <point x="506" y="620"/>
      <point x="155" y="546"/>
      <point x="155" y="319" type="curve" smooth="yes"/>
      <point x="155" y="199"/>
      <point x="184" y="137"/>
      <point x="184" y="26" type="curve" smooth="yes"/>
      <point x="184" y="-160"/>
      <point x="44" y="-226"/>
      <point x="-80" y="-226" type="curve"/>
    </contour>
    <contour>
      <point x="714" y="619" type="curve"/>
      <point x="714" y="684" type="line"/>
      <point x="653" y="704"/>
      <point x="614" y="721"/>
      <point x="614" y="803" type="curve" smooth="yes"/>
      <point x="614" y="929"/>
      <point x="874" y="1026"/>
      <point x="874" y="1280" type="curve" smooth="yes"/>
      <point x="874" y="1498"/>
      <point x="670" y="1560"/>
      <point x="340" y="1560" type="curve"/>
      <point x="340" y="1487" type="line"/>
      <point x="464" y="1487"/>
      <point x="488" y="1405"/>
      <point x="488" y="1319" type="curve" smooth="yes"/>
      <point x="488" y="1167"/>
      <point x="300" y="1060"/>
      <point x="300" y="860" type="curve" smooth="yes"/>
      <point x="300" y="674"/>
      <point x="506" y="639"/>
    </contour>
  </outline>
</glyph>
<glyph name="copyright" format="2">
  <advance width="1739"/>
  <unicode hex="00A9"/>
  <anchor x="850.6" y="300" name="_top"/>
  <anchor x="850.6" y="300" name="ogonek"/>
  <anchor x="1042.6" y="1200.6" name="top"/>
  <outline>
    <contour>
      <point x="840" y="-20" type="curve" smooth="yes"/>
      <point x="1306" y="-20"/>
      <point x="1750" y="425"/>
      <point x="1750" y="891" type="curve" smooth="yes"/>
      <point x="1750" y="1278"/>
      <point x="1467" y="1520"/>
      <point x="1080" y="1520" type="curve" smooth="yes"/>
      <point x="614" y="1520"/>
      <point x="170" y="1075"/>
      <point x="170" y="609" type="curve" smooth="yes"/>
      <point x="170" y="222"/>
      <point x="453" y="-20"/>
    </contour>
    <contour>
      <point x="1177" y="300" type="line"/>
      <point x="1214.8" y="300" type="line"/>
      <point x="1280.8" y="582.6" type="line"/>
      <point x="1237" y="582.6" type="line"/>
      <point x="1171.6" y="471.6" type="line"/>
      <point x="1138" y="432.6"/>
      <point x="1103.8" y="406.2"/>
      <point x="1069" y="384.6" type="curve"/>
    </contour>
    <contour>
      <point x="865" y="288" type="curve" smooth="yes"/>
      <point x="1036.6" y="288"/>
      <point x="1165" y="435"/>
      <point x="1261" y="582.6" type="curve"/>
      <point x="1237" y="582.6" type="line"/>
      <point x="1129" y="460.2"/>
      <point x="1023.4" y="341.4"/>
      <point x="898.6" y="341.4" type="curve" smooth="yes"/>
      <point x="773.8" y="341.4"/>
      <point x="763" y="399.6"/>
      <point x="763" y="510" type="curve" smooth="yes"/>
      <point x="763" y="727.8"/>
      <point x="872.2" y="1156.2"/>
      <point x="1093" y="1156.2" type="curve" smooth="yes"/>
      <point x="1169.8" y="1156.2"/>
      <point x="1253.2" y="1100.4"/>
      <point x="1302.4" y="917.4" type="curve"/>
      <point x="1327" y="917.4" type="line"/>
      <point x="1310.8" y="1089"/>
      <point x="1210" y="1212"/>
      <point x="1045" y="1212" type="curve" smooth="yes"/>
      <point x="741.4" y="1212"/>
      <point x="499" y="933.6"/>
      <point x="499" y="606" type="curve" smooth="yes"/>
      <point x="499" y="410.4"/>
      <point x="645.4" y="288"/>
    </contour>
    <contour>
      <point x="840" y="53" type="curve" smooth="yes"/>
      <point x="492" y="53"/>
      <point x="243" y="261"/>
      <point x="243" y="609" type="curve" smooth="yes"/>
      <point x="243" y="1035"/>
      <point x="654" y="1447"/>
      <point x="1080" y="1447" type="curve" smooth="yes"/>
      <point x="1426" y="1447"/>
      <point x="1677" y="1231"/>
      <point x="1677" y="891" type="curve" smooth="yes"/>
      <point x="1677" y="465"/>
      <point x="1266" y="53"/>
    </contour>
    <contour>
      <point x="1302.4" y="917.4" type="line"/>
      <point x="1347.4" y="917.4" type="line"/>
      <point x="1410.4" y="1200" type="line"/>
      <point x="1373.2" y="1200" type="line"/>
      <point x="1225.6" y="1110" type="line"/>
      <point x="1250.2" y="1086.6"/>
      <point x="1271.8" y="1060.8"/>
      <point x="1287.4" y="1028.4" type="curve"/>
    </contour>
  </outline>
</glyph>
<glyph name="micro" format="2">
  <advance width="1243"/>
  <unicode hex="00B5"/>
  <anchor x="456" y="0" name="bottom"/>
  <anchor x="792" y="0" name="ogonek"/>
  <anchor x="696" y="920" name="top"/>
  <outline>
    <contour>
      <point x="1172" y="330" type="line"/>
      <point x="1091" y="158"/>
      <point x="1019" y="96"/>
      <point x="968" y="96" type="curve" smooth="yes"/>
      <point x="951" y="96"/>
      <point x="943" y="105"/>
      <point x="943" y="126" type="curve" smooth="yes"/>
      <point x="943" y="136"/>
      <point x="948" y="153"/>
      <point x="951" y="165" type="curve" smooth="yes"/>
      <point x="1154" y="920" type="line"/>
      <point x="789" y="920" type="line"/>
      <point x="702" y="590" type="line" smooth="yes"/>
      <point x="622" y="315"/>
      <point x="486" y="113"/>
      <point x="425" y="113" type="curve" smooth="yes"/>
      <point x="403" y="113"/>
      <point x="399" y="149"/>
      <point x="442" y="305" type="curve" smooth="yes"/>
      <point x="612" y="920" type="line"/>
      <point x="101" y="920" type="line"/>
      <point x="101" y="847" type="line"/>
      <point x="225" y="847" type="line"/>
      <point x="-53" y="-242" type="line" smooth="yes"/>
      <point x="-106" y="-450"/>
      <point x="106" y="-520"/>
      <point x="277" y="-520" type="curve" smooth="yes"/>
      <point x="423" y="-520"/>
      <point x="504" y="-438"/>
      <point x="504" y="-330" type="curve" smooth="yes"/>
      <point x="504" y="-224"/>
      <point x="427" y="-146"/>
      <point x="321" y="-146" type="curve" smooth="yes"/>
      <point x="215" y="-146"/>
      <point x="138" y="-226"/>
      <point x="138" y="-322" type="curve" smooth="yes"/>
      <point x="138" y="-366"/>
      <point x="152" y="-411"/>
      <point x="175" y="-447" type="curve"/>
      <point x="71" y="-429"/>
      <point x="-15" y="-377"/>
      <point x="19" y="-242" type="curve" smooth="yes"/>
      <point x="97" y="63" type="line"/>
      <point x="135" y="10"/>
      <point x="201" y="-20"/>
      <point x="288" y="-20" type="curve" smooth="yes"/>
      <point x="427" y="-20"/>
      <point x="535" y="87"/>
      <point x="618" y="235" type="curve"/>
      <point x="605" y="228" type="line"/>
      <point x="599" y="209"/>
      <point x="595" y="175"/>
      <point x="595" y="145" type="curve" smooth="yes"/>
      <point x="595" y="35"/>
      <point x="671" y="-20"/>
      <point x="825" y="-20" type="curve" smooth="yes"/>
      <point x="996" y="-20"/>
      <point x="1134" y="56"/>
      <point x="1243" y="306" type="curve"/>
    </contour>
  </outline>
</glyph>
<glyph name="threequarters" format="2">
  <advance width="1401"/>
  <unicode hex="00BE"/>
  <outline>
    <contour>
      <point x="86" y="-200" type="line"/>
      <point x="154" y="-200" type="line"/>
      <point x="1393" y="1300" type="line"/>
      <point x="1324" y="1300" type="line"/>
    </contour>
    <contour>
      <point x="858" y="-206" type="line"/>
      <point x="1320" y="-206" type="line"/>
      <point x="1320" y="-162.2" type="line"/>
      <point x="858" y="-162.2" type="line"/>
    </contour>
    <contour>
      <point x="960" y="-206" type="line"/>
      <point x="1217.4" y="-206" type="line"/>
      <point x="1459.2" y="694" type="line"/>
      <point x="1231.2" y="694" type="line"/>
      <point x="633" y="30.4" type="line"/>
      <point x="1410" y="30.4" type="line"/>
      <point x="1410" y="74.2" type="line"/>
      <point x="736.2" y="74.2" type="line"/>
      <point x="1143.6" y="524.8" type="line"/>
    </contour>
    <contour>
      <point x="435.2" y="696" type="curve" smooth="yes"/>
      <point x="634.4" y="696"/>
      <point x="867.2" y="792"/>
      <point x="867.2" y="990" type="curve" smooth="yes"/>
      <point x="867.2" y="1122.6"/>
      <point x="726.8" y="1200"/>
      <point x="467.6" y="1200" type="curve"/>
      <point x="467.6" y="1173" type="line"/>
      <point x="598.4" y="1173"/>
      <point x="614" y="1114.8"/>
      <point x="614" y="1026" type="curve" smooth="yes"/>
      <point x="614" y="895.2"/>
      <point x="566" y="737.4"/>
      <point x="411.2" y="737.4" type="curve" smooth="yes"/>
      <point x="305.6" y="737.4"/>
      <point x="215" y="826.8"/>
      <point x="215" y="928.8" type="curve"/>
      <point x="171.2" y="928.8" type="line"/>
      <point x="171.2" y="868.8"/>
      <point x="233.6" y="816"/>
      <point x="298.4" y="816" type="curve" smooth="yes"/>
      <point x="363.8" y="816"/>
      <point x="426.2" y="870.6"/>
      <point x="426.2" y="939" type="curve" smooth="yes"/>
      <point x="426.2" y="1012.2"/>
      <point x="368.6" y="1065.6"/>
      <point x="302" y="1065.6" type="curve" smooth="yes"/>
      <point x="230" y="1065.6"/>
      <point x="170" y="1008"/>
      <point x="170" y="928.8" type="curve" smooth="yes"/>
      <point x="170" y="823.8"/>
      <point x="264.8" y="696"/>
    </contour>
    <contour>
      <point x="467.6" y="1189.2" type="line"/>
      <point x="744.8" y="1189.2"/>
      <point x="939.2" y="1315.2"/>
      <point x="939.2" y="1435.2" type="curve" smooth="yes"/>
      <point x="939.2" y="1567.8"/>
      <point x="755" y="1618.8"/>
      <point x="621.2" y="1618.8" type="curve" smooth="yes"/>
      <point x="498.8" y="1618.8"/>
      <point x="337.4" y="1551"/>
      <point x="337.4" y="1428" type="curve" smooth="yes"/>
      <point x="337.4" y="1348.8"/>
      <point x="400.4" y="1293.6"/>
      <point x="467" y="1293.6" type="curve" smooth="yes"/>
      <point x="527" y="1293.6"/>
      <point x="594.8" y="1342.2"/>
      <point x="594.8" y="1420.2" type="curve" smooth="yes"/>
      <point x="594.8" y="1492.2"/>
      <point x="532.4" y="1543.8"/>
      <point x="467" y="1543.8" type="curve" smooth="yes"/>
      <point x="406.4" y="1543.8"/>
      <point x="338.6" y="1494"/>
      <point x="338.6" y="1428" type="curve"/>
      <point x="382.4" y="1428" type="line"/>
      <point x="382.4" y="1530"/>
      <point x="505.4" y="1576.8"/>
      <point x="585.2" y="1576.8" type="curve" smooth="yes"/>
      <point x="668" y="1576.8"/>
      <point x="686" y="1542"/>
      <point x="686" y="1465.2" type="curve" smooth="yes"/>
      <point x="686" y="1388.4"/>
      <point x="640.4" y="1216.2"/>
      <point x="467.6" y="1216.2" type="curve"/>
    </contour>
  </outline>
</glyph>
<glyph name="oslash" format="2">
  <advance width="1128"/>
  <unicode hex="00F8"/>
  <outline>
    <contour>
      <point x="-136" y="-246.452" type="line"/>
      <point x="-41" y="-246.452" type="line"/>
      <point x="1165" y="1158.305" type="line"/>
      <point x="1071" y="1158.305" type="line"/>
    </contour>
    <component base="o"/>
  </outline>
</glyph>
<glyph name="idotless" format="2">
  <advance width="705"/>
  <unicode hex="0131"/>
  <anchor x="247" y="0" name="bottom"/>
  <anchor x="365" y="0" name="ogonek"/>
  <anchor x="422" y="920" name="top"/>
  <outline>
    <contour>
      <point x="286" y="-20" type="curve" smooth="yes"/>
      <point x="459" y="-20"/>
      <point x="594" y="56"/>
      <point x="705" y="306" type="curve"/>
      <point x="634" y="330" type="line"/>
      <point x="552" y="158"/>
      <point x="480" y="96"/>
      <point x="429" y="96" type="curve" smooth="yes"/>
      <point x="412" y="96"/>
      <point x="404" y="106"/>
      <point x="404" y="123" type="curve" smooth="yes"/>
      <point x="404" y="137"/>
      <point x="408.988" y="153.724"/>
      <point x="412" y="165" type="curve" smooth="yes"/>
      <point x="614" y="920" type="line"/>
      <point x="101" y="920" type="line"/>
      <point x="101" y="847" type="line"/>
      <point x="237" y="847" type="line"/>
      <point x="75" y="230" type="line" smooth="yes"/>
      <point x="69" y="208"/>
      <point x="60" y="177"/>
      <point x="60" y="127" type="curve" smooth="yes"/>
      <point x="60" y="41"/>
      <point x="132" y="-20"/>
    </contour>
  </outline>
</glyph>
<glyph name="Tbar" format="2">
  <advance width="1509"/>
  <unicode hex="0166"/>
  <outline>
    <contour>
      <point x="378.969" y="759" type="line"/>
      <point x="1250" y="759" type="line"/>
      <point x="1250" y="831" type="line"/>
      <point x="378.969" y="831" type="line"/>
    </contour>
    <component base="T" yOffset="8"/>
  </outline>
</glyph>
<glyph name="ringcomb" format="2">
  <unicode hex="030A"/>
  <anchor x="774" y="1500" name="_top"/>
  <outline>
    <contour>
      <point x="824" y="1680" type="curve" smooth="yes"/>
      <point x="967" y="1680"/>
      <point x="1053" y="1757"/>
      <point x="1053" y="1859" type="curve" smooth="yes"/>
      <point x="1053" y="1961"/>
      <point x="967" y="2040"/>
      <point x="824" y="2040" type="curve" smooth="yes"/>
      <point x="681" y="2040"/>
      <point x="593" y="1961"/>
      <point x="593" y="1859" type="curve" smooth="yes"/>
      <point x="593" y="1757"/>
      <point x="681" y="1680"/>
    </contour>
    <contour>
      <point x="792" y="1721" type="curve" smooth="yes"/>
      <point x="758" y="1721"/>
      <point x="759" y="1747"/>
      <point x="759" y="1770" type="curve" smooth="yes"/>
      <point x="759" y="1834"/>
      <point x="798" y="2000"/>
      <point x="853" y="2000" type="curve" smooth="yes"/>
      <point x="887" y="2000"/>
      <point x="887" y="1973"/>
      <point x="887" y="1950" type="curve" smooth="yes"/>
      <point x="887" y="1886"/>
      <point x="847" y="1721"/>
    </contour>
  </outline>
</glyph>
<glyph name="dotbelowcomb" format="2">
  <unicode hex="0323"/>
  <anchor x="394" y="0" name="_bottom"/>
  <outline>
    <contour>
      <point x="310" y="-563" type="curve" smooth="yes"/>
      <point x="436" y="-563"/>
      <point x="530" y="-469"/>
      <point x="530" y="-343" type="curve" smooth="yes"/>
      <point x="530" y="-217"/>
      <point x="436" y="-123"/>
      <point x="310" y="-123" type="curve" smooth="yes"/>
      <point x="184" y="-123"/>
      <point x="90" y="-217"/>
      <point x="90" y="-343" type="curve" smooth="yes"/>
      <point x="90" y="-469"/>
      <point x="184" y="-563"/>
    </contour>
  </outline>
</glyph>
<glyph name="commaaccentcomb" format="2">
  <unicode hex="0326"/>
  <anchor x="365" y="0" name="_bottom"/>
  <outline>
    <contour>
      <point x="-5" y="-794" type="line"/>
      <point x="243" y="-794"/>
      <point x="522" y="-662"/>
      <point x="522" y="-398" type="curve" smooth="yes"/>
      <point x="522" y="-266"/>
      <point x="425" y="-179"/>
      <point x="315" y="-179" type="curve" smooth="yes"/>
      <point x="206" y="-179"/>
      <point x="111" y="-274"/>
      <point x="111" y="-374" type="curve" smooth="yes"/>
      <point x="111" y="-479"/>
      <point x="191" y="-560"/>
      <point x="315" y="-560" type="curve" smooth="yes"/>
      <point x="402" y="-560"/>
      <point x="520" y="-510"/>
      <point x="520" y="-398" type="curve"/>
      <point x="462" y="-398" type="line"/>
      <point x="462" y="-638"/>
      <point x="189" y="-734"/>
      <point x="-5" y="-734" type="curve"/>
    </contour>
  </outline>
</glyph>
<glyph name="horizontalbar" format="2">
  <advance width="1715"/>
  <unicode hex="2015"/>
  <outline>
    <contour>
      <point x="165.496" y="514" type="line"/>
      <point x="1641.631" y="514" type="line"/>
      <point x="1641.631" y="586" type="line"/>
      <point x="165.496" y="586" type="line"/>
    </contour>
  </outline>
</glyph>
<glyph name="numero" format="2">
  <advance width="2411"/>
  <unicode hex="2116"/>
  <outline>
    <contour>
      <point x="1729" y="650" type="line"/>
      <point x="2268" y="650" type="line"/>
      <point x="2266" y="576" type="line"/>
      <point x="1727" y="576" type="line"/>
    </contour>
    <contour>
      <point x="2206" y="1520" type="curve" smooth="yes"/>
      <point x="2394" y="1520"/>
      <point x="2529" y="1434"/>
      <point x="2529" y="1248" type="curve" smooth="yes"/>
      <point x="2529" y="924"/>
      <point x="2271" y="760"/>
      <point x="2029" y="760" type="curve" smooth="yes"/>
      <point x="1841" y="760"/>
      <point x="1706" y="846"/>
      <point x="1706" y="1032" type="curve" smooth="yes"/>
      <point x="1706" y="1356"/>
      <point x="1964" y="1520"/>
    </contour>
    <contour>
      <point x="1979" y="941" type="curve" smooth="yes"/>
      <point x="1979" y="869"/>
      <point x="2001" y="833"/>
      <point x="2045" y="833" type="curve" smooth="yes"/>
      <point x="2147" y="833"/>
      <point x="2258" y="1131"/>
      <point x="2258" y="1339" type="curve" smooth="yes"/>
      <point x="2258" y="1411"/>
      <point x="2235" y="1447"/>
      <point x="2191" y="1447" type="curve" smooth="yes"/>
      <point x="2089" y="1447"/>
      <point x="1979" y="1149"/>
    </contour>
    <component base="N" xOffset="52"/>
  </outline>
</glyph>
<glyph name="trademark" format="2">
  <advance width="1233"/>
  <unicode hex="2122"/>
  <outline>
    <contour>
      <point x="1009" y="968" type="line"/>
      <point x="1039" y="968" type="line"/>
      <point x="1325" y="1488" type="line"/>
      <point x="1221" y="1001" type="line"/>
      <point x="1165" y="1001" type="line"/>
      <point x="1165" y="975" type="line"/>
      <point x="1427" y="975" type="line"/>
      <point x="1427" y="1001" type="line"/>
      <point x="1376" y="1001" type="line"/>
      <point x="1482" y="1489" type="line"/>
      <point x="1528" y="1489" type="line"/>
      <point x="1528" y="1515" type="line"/>
      <point x="1310" y="1515" type="line"/>
      <point x="1133" y="1191" type="line"/>
      <point x="1080" y="1515" type="line"/>
      <point x="862" y="1515" type="line"/>
      <point x="862" y="1489" type="line"/>
      <point x="908" y="1489" type="line"/>
      <point x="801" y="1001" type="line"/>
      <point x="748" y="1001" type="line"/>
      <point x="748" y="975" type="line"/>
      <point x="865" y="975" type="line"/>
      <point x="865" y="1001" type="line"/>
      <point x="829" y="1001" type="line"/>
      <point x="930" y="1480" type="line"/>
    </contour>
    <contour>
      <point x="343" y="975" type="line"/>
      <point x="656" y="975" type="line"/>
      <point x="656" y="1001" type="line"/>
      <point x="576" y="1001" type="line"/>
      <point x="689" y="1489" type="line"/>
      <point x="713" y="1489" type="line" smooth="yes"/>
      <point x="782" y="1489"/>
      <point x="812" y="1423"/>
      <point x="812" y="1331" type="curve"/>
      <point x="839" y="1331" type="line"/>
      <point x="880" y="1515" type="line"/>
      <point x="355" y="1515" type="line"/>
      <point x="315" y="1331" type="line"/>
      <point x="341" y="1331" type="line"/>
      <point x="383" y="1422"/>
      <point x="445" y="1489"/>
      <point x="515" y="1489" type="curve" smooth="yes"/>
      <point x="534" y="1489" type="line"/>
      <point x="421" y="1001" type="line"/>
      <point x="343" y="1001" type="line"/>
    </contour>
  </outline>
</glyph>
<glyph name="notequal" format="2">
  <advance width="1119"/>
  <unicode hex="2260"/>
  <outline>
    <contour>
      <point x="331.329" y="285.859" type="line"/>
      <point x="973.461" y="1202.918" type="line"/>
      <point x="914.482" y="1244.216" type="line"/>
      <point x="272.35" y="327.157" type="line"/>
    </contour>
    <contour>
      <point x="204" y="584" type="line"/>
      <point x="1084" y="584" type="line"/>
      <point x="1084" y="656" type="line"/>
      <point x="204" y="656" type="line"/>
    </contour>
    <contour>
      <point x="204" y="885" type="line"/>
      <point x="1084" y="885" type="line"/>
      <point x="1084" y="957" type="line"/>
      <point x="204" y="957" type="line"/>
    </contour>
  </outline>
</glyph>
<glyph name="b.sc" format="2">
  <advance width="1447"/>
  <anchor x="613" y="0" name="bottom"/>
  <anchor x="911" y="1040" name="top"/>
  <outline>
    <contour>
      <point x="-35" y="0" type="line"/>
      <point x="737" y="0" type="line" smooth="yes"/>
      <point x="1069" y="0"/>
      <point x="1249" y="53"/>
      <point x="1300" y="273" type="curve" smooth="yes"/>
      <point x="1355" y="513"/>
      <point x="1156" y="550"/>
      <point x="864" y="550" type="curve" smooth="yes"/>
      <point x="564" y="550" type="line"/>
      <point x="553" y="502" type="line"/>
      <point x="733" y="502" type="line" smooth="yes"/>
      <point x="845" y="502"/>
      <point x="879" y="441"/>
      <point x="845" y="293" type="curve" smooth="yes"/>
      <point x="811" y="145"/>
      <point x="746" y="72"/>
      <point x="634" y="72" type="curve" smooth="yes"/>
      <point x="-18" y="72" type="line"/>
    </contour>
    <contour>
      <point x="97" y="0" type="line"/>
      <point x="527" y="0" type="line"/>
      <point x="767" y="1040" type="line"/>
      <point x="337" y="1040" type="line"/>
    </contour>
    <contour>
      <point x="559" y="530" type="line"/>
      <point x="821" y="530" type="line" smooth="yes"/>
      <point x="1153" y="530"/>
      <point x="1321" y="616"/>
      <point x="1365" y="805" type="curve" smooth="yes"/>
      <point x="1407" y="985"/>
      <point x="1249" y="1040"/>
      <point x="939" y="1040" type="curve" smooth="yes"/>
      <point x="205" y="1040" type="line"/>
      <point x="188" y="968" type="line"/>
      <point x="820" y="968" type="line" smooth="yes"/>
      <point x="912" y="968"/>
      <point x="952" y="931"/>
      <point x="918" y="783" type="curve" smooth="yes"/>
      <point x="884" y="635"/>
      <point x="822" y="578"/>
      <point x="730" y="578" type="curve" smooth="yes"/>
      <point x="570" y="578" type="line"/>
    </contour>
  </outline>
</glyph>
<glyph name="caroncomb.alt" format="2">
  <anchor x="364" y="920" name="_topright"/>
  <outline>
    <contour>
      <point x="388" y="906" type="line"/>
      <point x="636" y="906"/>
      <point x="914" y="1037"/>
      <point x="914" y="1301" type="curve" smooth="yes"/>
      <point x="914" y="1433"/>
      <point x="817" y="1520"/>
      <point x="707" y="1520" type="curve" smooth="yes"/>
      <point x="598" y="1520"/>
      <point x="504" y="1426"/>
      <point x="504" y="1325" type="curve" smooth="yes"/>
      <point x="504" y="1220"/>
      <point x="583" y="1139"/>
      <point x="708" y="1139" type="curve" smooth="yes"/>
      <point x="794" y="1139"/>
      <point x="913" y="1189"/>
      <point x="913" y="1301" type="curve"/>
      <point x="854" y="1301" type="line"/>
      <point x="854" y="1061"/>
      <point x="581" y="965"/>
      <point x="388" y="965" type="curve"/>
    </contour>
  </outline>
</glyph>
<glyph name="d.sc" format="2">
  <advance width="1467"/>
  <anchor x="563" y="0" name="bottom"/>
  <anchor x="563" y="0" name="cedilla"/>
  <anchor x="816" y="1020" name="top"/>
  <outline>
    <contour>
      <point x="-35" y="0" type="line"/>
      <point x="587" y="0" type="line" smooth="yes"/>
      <point x="1023" y="0"/>
      <point x="1271" y="144"/>
      <point x="1355" y="510" type="curve" smooth="yes"/>
      <point x="1439" y="876"/>
      <point x="1278" y="1020"/>
      <point x="822" y="1020" type="curve" smooth="yes"/>
      <point x="200" y="1020" type="line"/>
      <point x="184" y="948" type="line"/>
      <point x="806" y="948" type="line" smooth="yes"/>
      <point x="934" y="948"/>
      <point x="980" y="834"/>
      <point x="905" y="510" type="curve" smooth="yes"/>
      <point x="830" y="186"/>
      <point x="752" y="72"/>
      <point x="604" y="72" type="curve" smooth="yes"/>
      <point x="-18" y="72" type="line"/>
    </contour>
    <contour>
      <point x="97" y="0" type="line"/>
      <point x="527" y="0" type="line"/>
      <point x="762" y="1020" type="line"/>
      <point x="332" y="1020" type="line"/>
    </contour>
  </outline>
</glyph>
<glyph name="four.alt" format="2">
  <advance width="1429"/>
  <outline>
    <contour>
      <point x="16" y="354" type="curve"/>
      <point x="1330" y="354" type="line"/>
      <point x="1330" y="427" type="line"/>
      <point x="175" y="427" type="line"/>
      <point x="454" y="755"/>
      <point x="1317" y="1130"/>
      <point x="1376" y="1500" type="curve"/>
      <point x="900" y="1500" type="line"/>
      <point x="800" y="1180"/>
      <point x="356" y="754"/>
    </contour>
    <contour>
      <point x="454" y="0" type="line"/>
      <point x="1225" y="0" type="line"/>
      <point x="1225" y="73" type="line"/>
      <point x="454" y="73" type="line"/>
    </contour>
    <contour>
      <point x="629" y="0" type="line"/>
      <point x="1059" y="0" type="line"/>
      <point x="1279" y="996" type="line"/>
      <point x="1179" y="935"/>
      <point x="961" y="855"/>
      <point x="820" y="855" type="curve"/>
    </contour>
  </outline>
</glyph>
<glyph name="four.osf" format="2">
  <advance width="1368"/>
  <outline>
    <contour>
      <point x="796" y="-1" type="line"/>
      <point x="1230" y="-1" type="line"/>
      <point x="1230" y="73" type="line"/>
      <point x="796" y="73" type="line"/>
    </contour>
    <contour>
      <point x="796" y="73" type="line"/>
      <point x="137" y="73" type="line"/>
      <point x="725" y="618" type="line"/>
      <point x="465" y="-500" type="line"/>
      <point x="895" y="-500" type="line"/>
      <point x="1222" y="920" type="line"/>
      <point x="922" y="920" type="line"/>
      <point x="-50" y="-1" type="line"/>
      <point x="796" y="-1" type="line"/>
    </contour>
  </outline>
</glyph>
<glyph name="i.sc" format="2">
  <advance width="960"/>
  <anchor x="351" y="0" name="bottom"/>
  <anchor x="351" y="0" name="cedilla"/>
  <anchor x="590" y="1020" name="top"/>
  <outline>
    <contour>
      <point x="136" y="0" type="line"/>
      <point x="565" y="0" type="line"/>
      <point x="800" y="1020" type="line"/>
      <point x="371" y="1020" type="line"/>
    </contour>
    <contour>
      <point x="-35" y="0" type="line"/>
      <point x="755" y="0" type="line"/>
      <point x="772" y="73" type="line"/>
      <point x="-18" y="73" type="line"/>
    </contour>
    <contour>
      <point x="184" y="947" type="line"/>
      <point x="974" y="947" type="line"/>
      <point x="990" y="1020" type="line"/>
      <point x="200" y="1020" type="line"/>
    </contour>
  </outline>
</glyph>
<glyph name="p.sc" format="2">
  <advance width="1325"/>
  <anchor x="311" y="0" name="bottom"/>
  <anchor x="770" y="1020" name="top"/>
  <outline>
    <contour>
      <point x="475" y="389" type="line"/>
      <point x="715" y="389" type="line" smooth="yes"/>
      <point x="1016" y="389"/>
      <point x="1248" y="444"/>
      <point x="1308" y="704" type="curve" smooth="yes"/>
      <point x="1368" y="964"/>
      <point x="1161" y="1020"/>
      <point x="860" y="1020" type="curve" smooth="yes"/>
      <point x="200" y="1020" type="line"/>
      <point x="184" y="947" type="line"/>
      <point x="794" y="947" type="line" smooth="yes"/>
      <point x="915" y="947"/>
      <point x="919" y="832"/>
      <point x="889" y="704" type="curve" smooth="yes"/>
      <point x="859" y="576"/>
      <point x="802" y="461"/>
      <point x="681" y="461" type="curve" smooth="yes"/>
      <point x="491" y="461" type="line"/>
    </contour>
    <contour>
      <point x="-35" y="0" type="line"/>
      <point x="656" y="0" type="line"/>
      <point x="673" y="73" type="line"/>
      <point x="-18" y="73" type="line"/>
    </contour>
    <contour>
      <point x="96" y="0" type="line"/>
      <point x="526" y="0" type="line"/>
      <point x="761" y="1020" type="line"/>
      <point x="331" y="1020" type="line"/>
    </contour>
  </outline>
</glyph>
